<svg xmlns="http://www.w3.org/2000/svg" version="1.1" xmlns:xlink="http://www.w3.org/1999/xlink" xmlns:svgjs="http://svgjs.dev/svgjs" viewBox="0 0 800 800"><defs><linearGradient x1="50%" y1="0%" x2="50%" y2="100%" id="gggyrate-grad"><stop stop-color="hsl(105, 100%, 50%)" stop-opacity="1" offset="0%"></stop><stop stop-color="hsl(105, 92%, 12%)" stop-opacity="1" offset="100%"></stop></linearGradient></defs><g stroke-width="5" stroke="url(#gggyrate-grad)" fill="none"><path d="M399.9999694824219 -266.838623046875L977.5000063842992 66.58069250646281V733.4193236131387L399.9999694824219 1066.8386391664765L-177.5000674194555 733.4193236131387V66.58069250646281L399.9999694824219 -266.838623046875Z " transform="rotate(490, 400, 400)" opacity="0.05"></path><path d="M399.9999694824219 -247.78607177734375L961.00000532996 76.1069776173274V723.8930764066695L399.9999694824219 1047.7861258013406L-161.00006636511614 723.8930764066695V76.1069776173274L399.9999694824219 -247.78607177734375Z " transform="rotate(476, 400, 400)" opacity="0.08"></path><path d="M399.9999694824219 -228.73358154296875L944.5000042756205 85.63320169303552V714.366768165044L399.9999694824219 1028.7335514010483L-144.5000653107768 714.366768165044V85.63320169303552L399.9999694824219 -228.73358154296875Z " transform="rotate(462, 400, 400)" opacity="0.11"></path><path d="M399.9999694824219 -209.6810302734375L928.0000032212813 95.1594868039V704.8405209585751L399.9999694824219 1009.6810380359125L-128.00006425643744 704.8405209585751V95.1594868039L399.9999694824219 -209.6810302734375Z " transform="rotate(448, 400, 400)" opacity="0.13"></path><path d="M399.9999694824219 -190.62847900390625L911.5000021669418 104.68577191476447V695.3142737521057L399.9999694824219 990.6285246707764L-111.50006320209809 695.3142737521057V104.68577191476447L399.9999694824219 -190.62847900390625Z " transform="rotate(434, 400, 400)" opacity="0.16"></path><path d="M399.9999694824219 -171.57598876953125L895.0000011126026 114.21199599047259V685.7879655104805L399.9999694824219 971.5759502704843L-95.00006214775874 685.7879655104805V114.21199599047259L399.9999694824219 -171.57598876953125Z " transform="rotate(420, 400, 400)" opacity="0.19"></path><path d="M399.9999694824219 -152.5234375L878.5000000582631 123.73828110133718V676.2617183040113L399.9999694824219 952.5234369053485L-78.50006109341939 676.2617183040113V123.73828110133718L399.9999694824219 -152.5234375Z " transform="rotate(406, 400, 400)" opacity="0.22"></path><path d="M399.9999694824219 -133.47088623046875L861.9999990039237 133.26456621220154V666.7354710975421L399.9999694824219 933.4709235402124L-62.00006003907998 666.7354710975421V133.26456621220154L399.9999694824219 -133.47088623046875Z " transform="rotate(392, 400, 400)" opacity="0.25"></path><path d="M399.9999694824219 -114.41839599609375L845.4999979495844 142.79079028790977V657.2091628559168L399.9999694824219 914.4183491399203L-45.50005898474063 657.2091628559168V142.79079028790977L399.9999694824219 -114.41839599609375Z " transform="rotate(378, 400, 400)" opacity="0.27"></path><path d="M399.9999694824219 -95.3658447265625L828.999996895245 152.31707539877414V647.6829156494475L399.9999694824219 895.365835774784L-29.000057930401283 647.6829156494475V152.31707539877414L399.9999694824219 -95.3658447265625Z " transform="rotate(364, 400, 400)" opacity="0.30"></path><path d="M399.9999694824219 -76.31329345703125L812.4999958409057 161.84336050963867V638.1566684429785L399.9999694824219 876.3133224096484L-12.500056876061933 638.1566684429785V161.84336050963867L399.9999694824219 -76.31329345703125Z " transform="rotate(350, 400, 400)" opacity="0.33"></path><path d="M399.9999694824219 -57.26080322265625L795.9999947865663 171.3695845853469V628.6303602013531L399.9999694824219 857.2607480093563L3.999944178277417 628.6303602013531V171.3695845853469L399.9999694824219 -57.26080322265625Z " transform="rotate(336, 400, 400)" opacity="0.36"></path><path d="M399.9999694824219 -38.208251953125L779.499993732227 180.89586969621132V619.104112994884L399.9999694824219 838.2082346442203L20.499945232616767 619.104112994884V180.89586969621132L399.9999694824219 -38.208251953125Z " transform="rotate(322, 400, 400)" opacity="0.39"></path><path d="M400.0000305175781 -19.15570068359375L763.0000537130439 190.4221548070758V609.5778657884148L400.0000305175781 819.1557212790844L37.00000732211237 609.5778657884148V190.4221548070758L400.0000305175781 -19.15570068359375Z " transform="rotate(308, 400, 400)" opacity="0.41"></path><path d="M400.0000305175781 -0.1031494140625L746.5000526587046 199.94843991794022V600.0516185819456L400.0000305175781 800.1032079139484L53.50000837645172 600.0516185819456V199.94843991794022L400.0000305175781 -0.1031494140625Z " transform="rotate(294, 400, 400)" opacity="0.44"></path><path d="M400.0000305175781 18.9493408203125L730.0000516043651 209.4746639936484V590.5253103403203L400.0000305175781 781.0506335136562L70.00000943079107 590.5253103403203V209.4746639936484L400.0000305175781 18.9493408203125Z " transform="rotate(280, 400, 400)" opacity="0.47"></path><path d="M400.0000305175781 38.00189208984375L713.5000505500258 219.00094910451287V580.9990631338511L400.0000305175781 761.9981201485202L86.50001048513042 580.9990631338511V219.00094910451287L400.0000305175781 38.00189208984375Z " transform="rotate(266, 400, 400)" opacity="0.50"></path><path d="M400.0000305175781 57.054412841796875L697.0000494956864 228.52720369779922V571.4727854098039L400.0000305175781 742.9455762658063L103.00001153946977 571.4727854098039V228.52720369779922L400.0000305175781 57.054412841796875Z " transform="rotate(252, 400, 400)" opacity="0.53"></path><path d="M400.0000305175781 76.10696411132812L680.5000484413472 238.0534888086637V561.9465382033347L400.0000305175781 723.8930629006703L119.50001259380912 561.9465382033347V238.0534888086637L400.0000305175781 76.10696411132812Z " transform="rotate(238, 400, 400)" opacity="0.55"></path><path d="M400.0000305175781 95.15948486328125L664.0000473870078 247.57974340195V552.4202604792875L400.0000305175781 704.8405190179562L136.00001364814847 552.4202604792875V247.57974340195L400.0000305175781 95.15948486328125Z " transform="rotate(224, 400, 400)" opacity="0.58"></path><path d="M400.00001525878906 114.21200561523438L647.5000310738794 257.1059979952363V542.8939827552402L400.00001525878906 685.7879751352422L152.49999944369875 542.8939827552402V257.1059979952363L400.00001525878906 114.21200561523438Z " transform="rotate(210, 400, 400)" opacity="0.61"></path><path d="M400 133.26455688476562L631.0000147607509 266.6322831061008V533.3677355487711L400 666.7354617701062L168.99998523924904 533.3677355487711V266.6322831061008L400 133.26455688476562Z " transform="rotate(196, 400, 400)" opacity="0.64"></path><path d="M400 152.31707763671875L614.5000137064116 276.15853769938707V523.8414578247238L400 647.682917887392L185.4999862935884 523.8414578247238V276.15853769938707L400 152.31707763671875Z " transform="rotate(182, 400, 400)" opacity="0.66"></path><path d="M400 171.36959838867188L598.0000126520722 285.6847922926735V514.3151801006766L400 628.6303740046782L201.99998734792774 514.3151801006766V285.6847922926735L400 171.36959838867188Z " transform="rotate(168, 400, 400)" opacity="0.69"></path><path d="M400 190.42214965820312L581.500011597733 295.2110774035379V504.7889328942074L400 609.5778606395422L218.4999884022671 504.7889328942074V295.2110774035379L400 190.42214965820312Z " transform="rotate(154, 400, 400)" opacity="0.72"></path><path d="M400 209.47467041015625L565.0000105433935 304.7373319968242V495.2626551701601L400 590.525316756828L234.99998945660644 495.2626551701601V304.7373319968242L400 209.47467041015625Z " transform="rotate(140, 400, 400)" opacity="0.75"></path><path d="M400 228.5272216796875L548.5000094890542 314.2636171076887V485.736407963691L400 571.4728033916922L251.49999051094585 485.736407963691V314.2636171076887L400 228.5272216796875Z " transform="rotate(126, 400, 400)" opacity="0.78"></path><path d="M400 247.57974243164062L532.0000084347148 323.789871700975V476.2101302396438L400 552.4202595089781L267.9999915652852 476.2101302396438V323.789871700975L400 247.57974243164062Z " transform="rotate(112, 400, 400)" opacity="0.80"></path><path d="M400 266.63226318359375L515.5000073803755 333.3161262942613V466.68385251559647L400 533.367715626264L284.49999261962455 466.68385251559647V333.3161262942613L400 266.63226318359375Z " transform="rotate(98, 400, 400)" opacity="0.83"></path><path d="M400 285.68479919433594L499.0000063260361 342.84239614633674V457.1575900503383L400 514.3151870023391L300.9999936739639 457.1575900503383V342.84239614633674L400 285.68479919433594Z " transform="rotate(84, 400, 400)" opacity="0.86"></path><path d="M400 304.7373352050781L482.50000527169675 352.3686659984121V447.63132758508004L400 495.262658378414L317.49999472830325 447.63132758508004V352.3686659984121L400 304.7373352050781Z " transform="rotate(70, 400, 400)" opacity="0.89"></path><path d="M400 323.7898712158203L466.0000042173574 361.8949358504875V438.1050651198219L400 476.21012975448906L333.9999957826426 438.1050651198219V361.8949358504875L400 323.7898712158203Z " transform="rotate(56, 400, 400)" opacity="0.92"></path><path d="M400 342.8424072265625L449.50000316301805 371.4212057025629V428.5788026545637L400 457.1576011305641L350.49999683698195 428.5788026545637V371.4212057025629L400 342.8424072265625Z " transform="rotate(42, 400, 400)" opacity="0.94"></path><path d="M400 361.8949279785156L433.0000021086787 380.9474602958492V419.0525249305164L400 438.10505724785L366.9999978913213 419.0525249305164V380.9474602958492L400 361.8949279785156Z " transform="rotate(28, 400, 400)" opacity="0.97"></path><path d="M400 380.9474639892578L416.50000105433935 390.4737301479246V409.5262624652582L400 419.052528623925L383.49999894566065 409.5262624652582V390.4737301479246L400 380.9474639892578Z " transform="rotate(14, 400, 400)" opacity="1.00"></path></g></svg>
<svg xmlns="http://www.w3.org/2000/svg" version="1.1" xmlns:xlink="http://www.w3.org/1999/xlink" xmlns:svgjs="http://svgjs.dev/svgjs" viewBox="0 0 800 800">
  <rect width="800" height="800" fill="#333"></rect>
  <defs>
    <linearGradient x1="50%" y1="0%" x2="50%" y2="100%" id="gggyrate-grad">
      <stop stop-color="hsl(105, 100%, 50%)" stop-opacity="1" offset="0%"></stop>
      <stop stop-color="hsl(105, 92%, 12%)" stop-opacity="1" offset="100%"></stop>
    </linearGradient>
  </defs>
  <g stroke-width="5" stroke="url(#gggyrate-grad)" fill="none">
    <!-- (Your SVG paths go here) -->
  </g>
</svg>